<svg width="21" height="30" viewBox="0 0 21 30" fill="none" xmlns="http://www.w3.org/2000/svg">
<path d="M18.556 6.97828L18.5354 6.96618L18.4878 6.95166C18.507 6.96782 18.5309 6.9772 18.556 6.97828Z" fill="white"/>
<path d="M18.5649 6.97519C18.5619 6.97481 18.5591 6.97413 18.5563 6.97314C18.5561 6.97504 18.5561 6.97697 18.5563 6.97887C18.5594 6.97845 18.5624 6.97718 18.5649 6.97519Z" fill="white"/>
<path d="M18.5562 6.97849H18.5592V6.97656L18.5562 6.97849Z" fill="white"/>
<path d="M18.8376 9.11767L18.8724 9.0979L18.8853 9.09063L18.897 9.07812C18.875 9.0876 18.8549 9.10102 18.8376 9.11767Z" fill="white"/>
<path d="M18.6162 7.02527L18.5823 6.99297L18.5593 6.98047C18.5717 7.00228 18.5921 7.01837 18.6162 7.02527Z" fill="white"/>
<path d="M10.0866 27.8228C10.0595 27.8345 10.0358 27.8528 10.0176 27.876L10.039 27.8624C10.0535 27.849 10.0741 27.8333 10.0866 27.8228Z" fill="white"/>
<path d="M15.0395 26.848C15.0395 26.8175 15.0245 26.8231 15.0282 26.932C15.0282 26.9233 15.0318 26.9144 15.0334 26.9059C15.0354 26.8865 15.037 26.8675 15.0395 26.848Z" fill="white"/>
<path d="M14.5258 27.8228C14.4987 27.8345 14.475 27.8528 14.4568 27.876L14.4782 27.8624C14.4927 27.849 14.5133 27.8333 14.5258 27.8228Z" fill="white"/>
<path d="M6.59828 28.0545C6.57771 28.0367 6.55254 28.025 6.52563 28.0205C6.54743 28.0311 6.56922 28.0416 6.58373 28.0496L6.59828 28.0545Z" fill="white"/>
<path d="M5.81333 27.3027C5.81012 27.271 5.80036 27.2403 5.78467 27.2124C5.79579 27.2413 5.80507 27.271 5.81251 27.3011L5.81333 27.3027Z" fill="white"/>
<path d="M11.0856 13.8587C10.008 14.32 8.78512 14.843 7.20021 14.843C6.53721 14.8417 5.8774 14.7508 5.23877 14.5726L6.33493 25.8269C6.37372 26.2972 6.58802 26.7358 6.93523 27.0555C7.28245 27.3752 7.73721 27.5525 8.20919 27.5525C8.20919 27.5525 9.76341 27.6332 10.282 27.6332C10.8402 27.6332 12.5139 27.5525 12.5139 27.5525C12.9858 27.5525 13.4405 27.375 13.7876 27.0553C14.1347 26.7355 14.349 26.2972 14.3878 25.8269L15.5618 13.3905C15.0371 13.2113 14.5076 13.0923 13.9107 13.0923C12.8783 13.0919 12.0465 13.4475 11.0856 13.8587Z" fill="white"/>
<path d="M1.8457 9.05713L1.86427 9.07449L1.87638 9.08176C1.86705 9.07249 1.85677 9.06424 1.8457 9.05713Z" fill="white"/>
<path d="M20.6309 8.01833L20.4659 7.18572C20.3177 6.43868 19.9816 5.7328 19.2147 5.4628C18.9689 5.37642 18.6901 5.33931 18.5016 5.16051C18.3131 4.98173 18.2574 4.70406 18.2138 4.44656C18.1331 3.97395 18.0572 3.50094 17.9745 3.02915C17.9031 2.62353 17.8466 2.16788 17.6605 1.79577C17.4184 1.29613 16.9159 1.00393 16.4162 0.810608C16.1602 0.715035 15.8989 0.634186 15.6337 0.568455C14.3854 0.239125 13.0729 0.118048 11.7887 0.0490336C10.2472 -0.0360227 8.70169 -0.0103964 7.16391 0.125715C6.01934 0.229842 4.81381 0.355763 3.72614 0.751685C3.32861 0.896574 2.91895 1.07052 2.61668 1.37765C2.24577 1.75501 2.12469 2.3386 2.39549 2.80918C2.58802 3.14336 2.91412 3.37946 3.26 3.53565C3.71052 3.7369 4.18102 3.89005 4.66369 3.99253C6.00763 4.28957 7.39962 4.40619 8.77262 4.45585C10.2944 4.51725 11.8187 4.46748 13.3332 4.3069C13.7077 4.26574 14.0816 4.21636 14.4548 4.1588C14.8943 4.09139 15.1764 3.51668 15.0469 3.11631C14.8919 2.63767 14.4754 2.45202 14.0044 2.52426C13.935 2.53515 13.866 2.54523 13.7965 2.55532L13.7465 2.56259C13.5869 2.58279 13.4274 2.6016 13.2678 2.6191C12.9382 2.65461 12.6078 2.68367 12.2766 2.70628C11.5348 2.75793 10.791 2.78174 10.0476 2.78296C9.31708 2.78296 8.58618 2.76236 7.85729 2.71435C7.52473 2.69256 7.19297 2.66483 6.86203 2.6312C6.7115 2.61546 6.56136 2.59892 6.41124 2.58035L6.26835 2.56219L6.23729 2.55776L6.08917 2.53637C5.78647 2.49075 5.48377 2.4383 5.18431 2.37492C5.1541 2.36821 5.12706 2.35142 5.10768 2.32727C5.08831 2.30313 5.07775 2.2731 5.07775 2.24214C5.07775 2.21119 5.08831 2.18116 5.10768 2.15702C5.12706 2.13288 5.1541 2.11607 5.18431 2.10936H5.18997C5.44948 2.05407 5.71099 2.00685 5.97332 1.96568C6.06079 1.95196 6.14849 1.93851 6.23647 1.92533H6.23888C6.40315 1.91443 6.56823 1.88496 6.73167 1.86559C8.15379 1.71767 9.58436 1.66724 11.0134 1.71465C11.7071 1.73483 12.4005 1.77559 13.091 1.84582C13.2396 1.86115 13.3873 1.8773 13.535 1.89546C13.5915 1.90232 13.6484 1.91039 13.7053 1.91725L13.8199 1.9338C14.1541 1.98358 14.4865 2.04398 14.8172 2.11501C15.3072 2.22156 15.9364 2.25627 16.1543 2.79304C16.2237 2.96336 16.2552 3.15264 16.2935 3.33142L16.3424 3.55946C16.3437 3.56354 16.3446 3.56774 16.3452 3.57196C16.4606 4.11009 16.5762 4.64821 16.6919 5.18633C16.7004 5.22609 16.7006 5.26716 16.6925 5.30699C16.6844 5.34684 16.6682 5.38456 16.6448 5.41786C16.6215 5.45115 16.5916 5.47927 16.5569 5.50047C16.5222 5.52168 16.4835 5.53549 16.4433 5.5411H16.44L16.3694 5.55079L16.2996 5.56005C16.0784 5.58886 15.857 5.61576 15.6353 5.64079C15.1986 5.69056 14.7612 5.7336 14.3232 5.76993C13.4528 5.84229 12.5806 5.88979 11.7067 5.9124C11.2614 5.92423 10.8163 5.92976 10.3713 5.92894C8.5999 5.92756 6.83006 5.82459 5.07051 5.62059C4.88 5.598 4.68951 5.57377 4.49901 5.54917C4.64673 5.56814 4.39165 5.53463 4.34 5.52738C4.21892 5.51042 4.09784 5.4928 3.97676 5.47451C3.57034 5.41355 3.16637 5.33849 2.76075 5.27269C2.27039 5.19198 1.80142 5.23235 1.35787 5.47451C0.993786 5.67374 0.699111 5.97925 0.513156 6.3503C0.321853 6.74581 0.264947 7.17644 0.179386 7.60143C0.0938252 8.0264 -0.03936 8.48367 0.0110887 8.91995C0.119654 9.86154 0.777911 10.6267 1.72473 10.7979C2.61546 10.9593 3.51102 11.0901 4.40901 11.2014C7.93652 11.6335 11.5002 11.6852 15.0388 11.3556C15.3269 11.3287 15.6147 11.2994 15.9021 11.2676C15.9918 11.2578 16.0826 11.2681 16.1679 11.2979C16.2531 11.3277 16.3306 11.3762 16.3947 11.4398C16.4588 11.5034 16.5078 11.5805 16.5382 11.6655C16.5686 11.7506 16.5796 11.8413 16.5704 11.9311L16.4808 12.8021C16.3003 14.562 16.1197 16.3218 15.9392 18.0815C15.7509 19.9294 15.5613 21.7771 15.3705 23.6247C15.3167 24.1451 15.2629 24.6654 15.2091 25.1854C15.1574 25.6977 15.1502 26.2259 15.0529 26.7321C14.8995 27.5279 14.3608 28.0168 13.5746 28.1955C12.8543 28.3594 12.1185 28.4455 11.3798 28.4521C10.5609 28.4566 9.74247 28.4202 8.92359 28.4246C8.04939 28.4296 6.97868 28.3489 6.30388 27.6982C5.71099 27.1268 5.62906 26.232 5.54835 25.4582C5.44073 24.4339 5.33405 23.4098 5.22829 22.3857L4.63503 16.6915L4.25122 13.0071C4.24475 12.9462 4.23829 12.886 4.23224 12.8247C4.18622 12.3852 3.87506 11.955 3.38469 11.9772C2.96497 11.9957 2.48793 12.3525 2.53716 12.8247L2.82168 15.5562L3.41012 21.2065C3.57776 22.8114 3.74497 24.4165 3.91179 26.0221C3.94409 26.3296 3.97435 26.638 4.00824 26.9455C4.1927 28.6261 5.4761 29.5318 7.06544 29.7867C7.99371 29.9361 8.94456 29.9669 9.88654 29.9821C11.0941 30.0016 12.3137 30.048 13.5015 29.8292C15.2616 29.5062 16.5821 28.3311 16.7706 26.5081C16.8244 25.9817 16.8782 25.4554 16.932 24.9288C17.1109 23.1874 17.2896 21.4459 17.468 19.7043L18.0516 14.0137L18.3192 11.4057C18.3325 11.2763 18.3871 11.1547 18.4749 11.0589C18.5627 10.963 18.6791 10.898 18.8067 10.8733C19.31 10.7753 19.7911 10.6078 20.1491 10.2247C20.7189 9.61495 20.8323 8.81987 20.6309 8.01833ZM1.6989 8.58094C1.70657 8.57731 1.69245 8.64308 1.68639 8.67376C1.68518 8.62734 1.6876 8.58618 1.6989 8.58094ZM1.74774 8.9587C1.75178 8.95586 1.76388 8.97202 1.77639 8.9914C1.75742 8.97362 1.74532 8.96032 1.74734 8.9587H1.74774ZM1.79577 9.02205C1.8224 9.07009 1.81312 9.05151 1.79577 9.02205ZM1.89222 9.10035H1.89465C1.89465 9.10319 1.89909 9.106 1.9007 9.10884C1.89802 9.10572 1.89505 9.10288 1.89182 9.10035H1.89222ZM18.7833 8.98331C18.6025 9.15524 18.3301 9.23515 18.0609 9.27512C15.042 9.7231 11.9792 9.94992 8.9272 9.84983C6.74297 9.77517 4.58176 9.53259 2.41932 9.22708C2.20743 9.19722 1.97778 9.15847 1.83209 9.00228C1.55765 8.70765 1.69245 8.11439 1.76388 7.75842C1.82926 7.43232 1.95438 6.99766 2.34223 6.95124C2.94762 6.88021 3.65066 7.13567 4.2496 7.22649C4.97068 7.33652 5.69445 7.42464 6.4209 7.49084C9.52129 7.77336 12.6737 7.72936 15.7604 7.31609C16.323 7.24047 16.8836 7.15263 17.4422 7.05254C17.9398 6.96334 18.4915 6.79587 18.7922 7.31124C18.9984 7.66237 19.0258 8.13214 18.994 8.52887C18.9841 8.70172 18.9086 8.86429 18.7829 8.98331H18.7833Z" fill="white"/>
</svg>
