<svg width="55" height="40" viewBox="0 0 55 40" fill="none" xmlns="http://www.w3.org/2000/svg">
<path d="M54.1765 21.6676H41.0363C41.2609 12.0909 43.9771 11.0038 47.3886 10.6936L48.7041 10.5305L48.7041 9.77461e-07L47.1878 0.0812648C42.733 0.331899 37.8078 1.13497 34.522 5.19136C31.6416 8.74731 30.3717 14.5568 30.3717 23.4748L30.3717 40H54.1765V21.6676Z" fill="white"/>
<path d="M23.8049 40L23.8049 21.6676H10.8401C11.0647 12.0909 13.6931 11.0038 17.1046 10.6936L18.3326 10.5305L18.3326 9.77461e-07L16.9037 0.0812648C12.4489 0.331899 7.47976 1.13497 4.19388 5.19136C1.31377 8.74731 0.000130832 14.5568 0.000130832 23.4748L0.000130832 40H23.8049Z" fill="white"/>
</svg>
