<svg width="55" height="40" viewBox="0 0 55 40" fill="none" xmlns="http://www.w3.org/2000/svg">
<path d="M0.000244141 18.3324H13.1405C12.9159 27.9091 10.1996 28.9962 6.78817 29.3064L5.47261 29.4695V40L6.98901 39.9187C11.4438 39.6681 16.3689 38.865 19.6548 34.8086C22.5352 31.2527 23.805 25.4432 23.805 16.5252V0L0.000244141 0V18.3324Z" fill="white"/>
<path d="M30.3723 0V18.3324H43.3372C43.1125 27.9091 40.4842 28.9962 37.0727 29.3064L35.8447 29.4695V40L37.2735 39.9187C41.7283 39.6681 46.6975 38.865 49.9834 34.8086C52.8635 31.2527 54.1771 25.4432 54.1771 16.5252V0L30.3723 0Z" fill="white"/>
</svg>
