<svg width="2038" height="179" viewBox="0 0 2038 179" fill="none" xmlns="http://www.w3.org/2000/svg">
<path d="M58.7158 178H18.0664L24.0479 145.041L60.0586 145.285C70.2311 145.285 78.6133 142.762 85.2051 137.717C91.8783 132.671 97.0459 126.12 100.708 118.063C104.451 110.007 106.974 101.503 108.276 92.5508L109.131 84.9824C109.863 79.6113 110.189 73.9961 110.107 68.1367C110.026 62.196 109.172 56.6621 107.544 51.5352C105.916 46.4082 103.149 42.1764 99.2432 38.8398C95.4183 35.5033 90.0472 33.7129 83.1299 33.4688L42.4805 33.3467L48.2178 0.265625L84.4727 0.387695C96.3542 0.631836 106.771 3.07324 115.723 7.71191C124.674 12.2692 132.039 18.4948 137.817 26.3887C143.595 34.2012 147.664 43.153 150.024 53.2441C152.384 63.3353 152.913 73.9554 151.611 85.1045L150.757 92.7949C149.211 104.676 145.874 115.826 140.747 126.242C135.62 136.577 129.028 145.651 120.972 153.464C112.915 161.195 103.597 167.258 93.0176 171.652C82.5195 175.965 71.0856 178.081 58.7158 178ZM72.998 0.265625L42.1143 178H0.366211L31.1279 0.265625H72.998ZM331.982 145.041L326.245 178H234.082L239.819 145.041H331.982ZM279.98 0.265625L249.097 178H207.349L238.11 0.265625H279.98ZM332.959 70.8223L327.466 102.683H247.144L252.759 70.8223H332.959ZM357.373 0.265625L351.636 33.3467H259.106L264.966 0.265625H357.373ZM517.725 145.041L511.987 178H419.824L425.562 145.041H517.725ZM465.723 0.265625L434.839 178H393.091L423.853 0.265625H465.723ZM518.701 70.8223L513.208 102.683H432.886L438.501 70.8223H518.701ZM543.115 0.265625L537.378 33.3467H444.849L450.708 0.265625H543.115ZM660.376 117.819L615.21 117.697L620.947 84.6162L661.841 84.7383C667.131 84.7383 671.973 83.8024 676.367 81.9307C680.762 79.9775 684.383 77.1699 687.231 73.5078C690.08 69.8457 691.911 65.2884 692.725 59.8359C693.457 55.36 693.335 51.1689 692.358 47.2627C691.382 43.3564 689.469 40.1419 686.621 37.6191C683.773 35.0964 679.867 33.7129 674.902 33.4688L645.728 33.3467L620.581 178H578.833L609.595 0.265625L676.245 0.387695C687.882 0.631836 698.299 3.15462 707.495 7.95605C716.691 12.7575 723.812 19.512 728.857 28.2197C733.903 36.9274 735.938 47.3848 734.961 59.5918C733.903 72.7754 729.712 83.6803 722.388 92.3066C715.145 100.933 706.03 107.362 695.044 111.594C684.139 115.744 672.583 117.819 660.376 117.819ZM983.032 92.5508H933.472L935.303 79.8555H976.318C983.805 79.8555 990.845 78.6755 997.437 76.3154C1004.11 73.9554 1009.72 70.2933 1014.28 65.3291C1018.92 60.2835 1021.85 53.7731 1023.07 45.7979C1024.37 37.8226 1023.52 31.4749 1020.51 26.7549C1017.58 22.0348 1013.22 18.6576 1007.45 16.623C1001.75 14.5072 995.361 13.3678 988.281 13.2051H951.172L922.607 178H907.837L938.599 0.265625H988.525C995.768 0.428385 1002.6 1.40495 1009.03 3.19531C1015.46 4.9043 1021 7.58984 1025.63 11.252C1030.27 14.9141 1033.73 19.6341 1036.01 25.4121C1038.29 31.1087 1038.94 38.026 1037.96 46.1641C1036.99 54.4648 1034.38 61.4635 1030.15 67.1602C1025.92 72.7754 1020.55 77.292 1014.04 80.71C1007.61 84.0465 1000.61 86.4473 993.042 87.9121L983.032 92.5508ZM967.163 178H913.574L923.218 165.183H967.407C975.382 165.101 982.747 163.636 989.502 160.788C996.257 157.94 1001.91 153.749 1006.47 148.215C1011.11 142.6 1014.08 135.764 1015.38 127.707C1016.52 120.301 1015.83 114.035 1013.31 108.908C1010.78 103.7 1006.88 99.7529 1001.59 97.0674C996.297 94.3005 990.112 92.7949 983.032 92.5508H951.904L954.224 79.8555H996.216L998.047 84.4941C1005.21 85.6335 1011.31 88.2376 1016.36 92.3066C1021.48 96.3757 1025.23 101.462 1027.59 107.565C1029.95 113.588 1030.72 120.22 1029.91 127.463C1028.69 138.449 1025.07 147.686 1019.04 155.173C1013.1 162.66 1005.57 168.356 996.46 172.263C987.427 176.088 977.661 178 967.163 178ZM1137.04 0.265625H1192.09C1202.59 0.509766 1211.87 2.62565 1219.92 6.61328C1228.06 10.6009 1234.2 16.3789 1238.35 23.9473C1242.59 31.5156 1244.01 40.8743 1242.63 52.0234C1241.49 61.0566 1238.68 68.8691 1234.2 75.4609C1229.73 81.9714 1224.07 87.4238 1217.24 91.8184C1210.48 96.1315 1202.99 99.5088 1194.78 101.95L1189.4 103.903H1128.49L1130.44 91.0859L1179.64 91.208C1187.53 91.1266 1194.9 89.499 1201.73 86.3252C1208.57 83.1514 1214.31 78.6755 1218.95 72.8975C1223.58 67.0381 1226.55 60.0801 1227.86 52.0234C1229.16 43.7227 1228.39 36.724 1225.54 31.0273C1222.77 25.3307 1218.42 20.9769 1212.48 17.9658C1206.62 14.9548 1199.74 13.3678 1191.85 13.2051H1149.49L1120.92 178H1106.27L1137.04 0.265625ZM1213.09 178L1182.08 98.5322L1196.97 98.2881L1228.71 176.291L1228.59 178H1213.09ZM1420.07 165.183L1417.87 178H1320.83L1322.9 165.183H1420.07ZM1356.1 0.265625L1325.34 178H1310.57L1341.33 0.265625H1356.1ZM1422.75 79.9775L1420.68 92.7949H1335.47L1337.67 79.9775H1422.75ZM1448.14 0.265625L1445.95 13.2051H1349.39L1351.46 0.265625H1448.14ZM1584.08 11.6182L1495.95 178H1480.08L1575.9 0.387695H1587.01L1584.08 11.6182ZM1609.72 178L1578.59 10.2754L1579.57 0.265625H1589.94L1624.49 178H1609.72ZM1609.72 115.256L1607.52 128.195H1515.84L1517.92 115.256H1609.72ZM1772.88 0.265625L1742.24 178H1727.71L1758.47 0.265625H1772.88ZM1831.96 0.265625L1829.88 13.2051H1697.19L1699.39 0.265625H1831.96ZM2012.08 79.9775L2009.89 92.7949H1905.03L1907.1 79.9775H2012.08ZM1924.56 0.265625L1893.8 178H1879.03L1909.79 0.265625H1924.56ZM2037.6 0.265625L2006.84 178H1992.19L2022.95 0.265625H2037.6Z" fill="white"/>
</svg>
