<svg width="28" height="30" viewBox="0 0 28 30" fill="none" xmlns="http://www.w3.org/2000/svg">
<path d="M4.68875 0.7625L21.0938 10.195L17.5775 13.7112L4.68875 0.7625ZM1.29 0L16.3488 15L1.29125 30C0.525 29.6613 0 28.9075 0 28.0312C0 28.0025 0 27.9738 0.00125 27.9463V27.95V2.05125C0 2.0275 0 1.99875 0 1.97C0 1.09375 0.525 0.34 1.2775 0.00625L1.29125 0.00125L1.29 0ZM26.1925 13.2425C26.71 13.6262 27.0412 14.2362 27.0412 14.9225C27.0412 14.95 27.0412 14.9763 27.04 15.0038V15C27.045 15.0538 27.0487 15.1175 27.0487 15.1813C27.0487 15.8263 26.7363 16.3987 26.2538 16.7537L26.2488 16.7575L22.7325 18.7487L18.925 15L22.7338 11.1913L26.1925 13.2425ZM4.68875 29.2375L17.5787 16.2888L21.095 19.805L4.68875 29.2375Z" fill="white"/>
</svg>
