<svg width="584" height="220" viewBox="0 0 584 220" fill="none" xmlns="http://www.w3.org/2000/svg">
<path d="M16.4404 134H5.05859L6.7334 124.771L16.8164 124.84C19.6647 124.84 22.0117 124.133 23.8574 122.721C25.7259 121.308 27.1729 119.474 28.1982 117.218C29.2464 114.962 29.9528 112.581 30.3174 110.074L30.5566 107.955C30.7617 106.451 30.8529 104.879 30.8301 103.238C30.8073 101.575 30.568 100.025 30.1123 98.5898C29.6566 97.1543 28.8818 95.9694 27.7881 95.0352C26.7171 94.1009 25.2132 93.5996 23.2764 93.5312L11.8945 93.4971L13.501 84.2344L23.6523 84.2686C26.9792 84.3369 29.8958 85.0205 32.4023 86.3193C34.9089 87.5954 36.971 89.3385 38.5889 91.5488C40.2067 93.7363 41.346 96.2428 42.0068 99.0684C42.6676 101.894 42.8158 104.868 42.4512 107.989L42.2119 110.143C41.779 113.469 40.8447 116.591 39.4092 119.508C37.9736 122.402 36.1279 124.942 33.8721 127.13C31.6162 129.295 29.0072 130.992 26.0449 132.223C23.1055 133.43 19.904 134.023 16.4404 134ZM20.4395 84.2344L11.792 134H0.102539L8.71582 84.2344H20.4395ZM92.9551 124.771L91.3486 134H65.543L67.1494 124.771H92.9551ZM78.3945 84.2344L69.7471 134H58.0576L66.6709 84.2344H78.3945ZM93.2285 103.99L91.6904 112.911H69.2002L70.7725 103.99H93.2285ZM100.064 84.2344L98.458 93.4971H72.5498L74.1904 84.2344H100.064ZM144.963 124.771L143.356 134H117.551L119.157 124.771H144.963ZM130.402 84.2344L121.755 134H110.065L118.679 84.2344H130.402ZM145.236 103.99L143.698 112.911H121.208L122.78 103.99H145.236ZM152.072 84.2344L150.466 93.4971H124.558L126.198 84.2344H152.072ZM184.905 117.149L172.259 117.115L173.865 107.853L185.315 107.887C186.797 107.887 188.152 107.625 189.383 107.101C190.613 106.554 191.627 105.768 192.425 104.742C193.222 103.717 193.735 102.441 193.963 100.914C194.168 99.6608 194.134 98.4873 193.86 97.3936C193.587 96.2998 193.051 95.3997 192.254 94.6934C191.456 93.987 190.363 93.5996 188.973 93.5312L180.804 93.4971L173.763 134H162.073L170.687 84.2344L189.349 84.2686C192.607 84.3369 195.524 85.0433 198.099 86.3877C200.674 87.7321 202.667 89.6234 204.08 92.0615C205.493 94.4997 206.062 97.4277 205.789 100.846C205.493 104.537 204.319 107.59 202.269 110.006C200.241 112.421 197.688 114.221 194.612 115.406C191.559 116.568 188.323 117.149 184.905 117.149ZM275.249 110.074H261.372L261.885 106.52H273.369C275.465 106.52 277.437 106.189 279.282 105.528C281.151 104.868 282.723 103.842 283.999 102.452C285.298 101.039 286.118 99.2165 286.46 96.9834C286.825 94.7503 286.585 92.973 285.742 91.6514C284.922 90.3298 283.703 89.3841 282.085 88.8145C280.49 88.222 278.701 87.903 276.719 87.8574H266.328L258.33 134H254.194L262.808 84.2344H276.787C278.815 84.2799 280.729 84.5534 282.529 85.0547C284.329 85.5332 285.879 86.2852 287.178 87.3105C288.477 88.3359 289.445 89.6576 290.083 91.2754C290.721 92.8704 290.903 94.8073 290.63 97.0859C290.356 99.4102 289.627 101.37 288.442 102.965C287.257 104.537 285.754 105.802 283.931 106.759C282.131 107.693 280.171 108.365 278.052 108.775L275.249 110.074ZM270.806 134H255.801L258.501 130.411H270.874C273.107 130.388 275.169 129.978 277.061 129.181C278.952 128.383 280.535 127.21 281.812 125.66C283.11 124.088 283.942 122.174 284.307 119.918C284.626 117.844 284.432 116.09 283.726 114.654C283.019 113.196 281.925 112.091 280.444 111.339C278.963 110.564 277.231 110.143 275.249 110.074H266.533L267.183 106.52H278.94L279.453 107.818C281.458 108.137 283.167 108.867 284.58 110.006C286.016 111.145 287.064 112.569 287.725 114.278C288.385 115.965 288.602 117.822 288.374 119.85C288.032 122.926 287.018 125.512 285.332 127.608C283.669 129.705 281.561 131.3 279.009 132.394C276.479 133.465 273.745 134 270.806 134ZM318.37 84.2344H333.785C336.725 84.3027 339.322 84.8952 341.578 86.0117C343.857 87.1283 345.577 88.7461 346.739 90.8652C347.924 92.9844 348.323 95.6048 347.936 98.7266C347.617 101.256 346.83 103.443 345.577 105.289C344.324 107.112 342.74 108.639 340.826 109.869C338.935 111.077 336.839 112.022 334.537 112.706L333.033 113.253H315.978L316.524 109.664L330.299 109.698C332.509 109.675 334.571 109.22 336.485 108.331C338.399 107.442 340.006 106.189 341.305 104.571C342.604 102.931 343.435 100.982 343.8 98.7266C344.164 96.4023 343.948 94.4427 343.15 92.8477C342.376 91.2526 341.157 90.0335 339.493 89.1904C337.853 88.3473 335.927 87.903 333.717 87.8574H321.856L313.858 134H309.757L318.37 84.2344ZM339.664 134L330.982 111.749L335.152 111.681L344.039 133.521L344.005 134H339.664ZM397.619 130.411L397.004 134H369.831L370.412 130.411H397.619ZM379.709 84.2344L371.096 134H366.96L375.573 84.2344H379.709ZM398.371 106.554L397.79 110.143H373.933L374.548 106.554H398.371ZM405.48 84.2344L404.865 87.8574H377.829L378.41 84.2344H405.48ZM443.543 87.4131L418.865 134H414.422L441.253 84.2686H444.363L443.543 87.4131ZM450.721 134L442.005 87.0371L442.278 84.2344H445.184L454.856 134H450.721ZM450.721 116.432L450.105 120.055H424.437L425.018 116.432H450.721ZM496.405 84.2344L487.826 134H483.759L492.372 84.2344H496.405ZM512.948 84.2344L512.367 87.8574H475.214L475.829 84.2344H512.948ZM563.384 106.554L562.769 110.143H533.408L533.989 106.554H563.384ZM538.877 84.2344L530.264 134H526.128L534.741 84.2344H538.877ZM570.527 84.2344L561.914 134H557.812L566.426 84.2344H570.527Z" fill="white"/>
<path d="M17.2607 11.4531V47H12.6221V11.4531H17.2607ZM28.6865 11.4531V15.3105H1.2207V11.4531H28.6865ZM46.0693 42.4834V28.8848C46.0693 27.8431 45.8577 26.9398 45.4346 26.1748C45.0277 25.3936 44.4092 24.7913 43.5791 24.3682C42.749 23.945 41.7236 23.7334 40.5029 23.7334C39.3636 23.7334 38.3626 23.9287 37.5 24.3193C36.6536 24.71 35.9863 25.2227 35.498 25.8574C35.026 26.4922 34.79 27.1758 34.79 27.9082H30.2734C30.2734 26.9642 30.5176 26.0283 31.0059 25.1006C31.4941 24.1729 32.194 23.3346 33.1055 22.5859C34.0332 21.821 35.14 21.2188 36.4258 20.7793C37.7279 20.3236 39.1764 20.0957 40.7715 20.0957C42.6921 20.0957 44.3848 20.4212 45.8496 21.0723C47.3307 21.7233 48.4863 22.708 49.3164 24.0264C50.1628 25.3285 50.5859 26.9642 50.5859 28.9336V41.2383C50.5859 42.1172 50.6592 43.0531 50.8057 44.0459C50.9684 45.0387 51.2044 45.8932 51.5137 46.6094V47H46.8018C46.5739 46.4792 46.3949 45.7874 46.2646 44.9248C46.1344 44.0459 46.0693 43.2321 46.0693 42.4834ZM46.8506 30.9844L46.8994 34.1582H42.334C41.0482 34.1582 39.9007 34.264 38.8916 34.4756C37.8825 34.6709 37.0361 34.972 36.3525 35.3789C35.6689 35.7858 35.1481 36.2985 34.79 36.917C34.432 37.5192 34.2529 38.2272 34.2529 39.041C34.2529 39.8711 34.4401 40.6279 34.8145 41.3115C35.1888 41.9951 35.7503 42.5404 36.499 42.9473C37.264 43.3379 38.1999 43.5332 39.3066 43.5332C40.6901 43.5332 41.9108 43.2402 42.9688 42.6543C44.0267 42.0684 44.8649 41.3522 45.4834 40.5059C46.1182 39.6595 46.46 38.8376 46.5088 38.04L48.4375 40.2129C48.3236 40.8965 48.0143 41.6533 47.5098 42.4834C47.0052 43.3135 46.3298 44.111 45.4834 44.876C44.6533 45.6247 43.6605 46.2513 42.5049 46.7559C41.3656 47.2441 40.0798 47.4883 38.6475 47.4883C36.8571 47.4883 35.2865 47.1383 33.9355 46.4385C32.6009 45.7386 31.5592 44.8027 30.8105 43.6309C30.0781 42.4427 29.7119 41.1162 29.7119 39.6514C29.7119 38.2354 29.9886 36.9902 30.542 35.916C31.0954 34.8255 31.8929 33.9222 32.9346 33.2061C33.9762 32.4736 35.2295 31.9202 36.6943 31.5459C38.1592 31.1715 39.7949 30.9844 41.6016 30.9844H46.8506ZM62.2314 9.5V47H57.6904V9.5H62.2314ZM78.3691 20.584L66.8457 32.9131L60.4004 39.6025L60.0342 34.793L64.6484 29.2754L72.8516 20.584H78.3691ZM74.2432 47L64.8193 34.4023L67.1631 30.374L79.5654 47H74.2432ZM93.5059 47.4883C91.6667 47.4883 89.9984 47.179 88.501 46.5605C87.0199 45.9258 85.7422 45.0387 84.668 43.8994C83.61 42.7601 82.7962 41.4092 82.2266 39.8467C81.6569 38.2842 81.3721 36.5752 81.3721 34.7197V33.6943C81.3721 31.5459 81.6895 29.6335 82.3242 27.957C82.959 26.2643 83.8216 24.832 84.9121 23.6602C86.0026 22.4883 87.2396 21.6012 88.623 20.999C90.0065 20.3968 91.4388 20.0957 92.9199 20.0957C94.8079 20.0957 96.4355 20.4212 97.8027 21.0723C99.1862 21.7233 100.317 22.6348 101.196 23.8066C102.075 24.9622 102.726 26.3294 103.149 27.9082C103.573 29.4707 103.784 31.1797 103.784 33.0352V35.0615H84.0576V31.375H99.2676V31.0332C99.2025 29.8613 98.9583 28.722 98.5352 27.6152C98.1283 26.5085 97.4772 25.597 96.582 24.8809C95.6868 24.1647 94.4661 23.8066 92.9199 23.8066C91.8945 23.8066 90.9505 24.0264 90.0879 24.4658C89.2253 24.889 88.4847 25.5238 87.8662 26.3701C87.2477 27.2165 86.7676 28.25 86.4258 29.4707C86.084 30.6914 85.9131 32.0993 85.9131 33.6943V34.7197C85.9131 35.973 86.084 37.153 86.4258 38.2598C86.7839 39.3503 87.2965 40.3105 87.9639 41.1406C88.6475 41.9707 89.4694 42.6217 90.4297 43.0938C91.4062 43.5658 92.513 43.8018 93.75 43.8018C95.3451 43.8018 96.696 43.4762 97.8027 42.8252C98.9095 42.1742 99.8779 41.3034 100.708 40.2129L103.442 42.3857C102.873 43.2484 102.148 44.0703 101.27 44.8516C100.391 45.6328 99.3083 46.2676 98.0225 46.7559C96.7529 47.2441 95.2474 47.4883 93.5059 47.4883ZM137.036 42.4834V28.8848C137.036 27.8431 136.825 26.9398 136.401 26.1748C135.994 25.3936 135.376 24.7913 134.546 24.3682C133.716 23.945 132.69 23.7334 131.47 23.7334C130.33 23.7334 129.329 23.9287 128.467 24.3193C127.62 24.71 126.953 25.2227 126.465 25.8574C125.993 26.4922 125.757 27.1758 125.757 27.9082H121.24C121.24 26.9642 121.484 26.0283 121.973 25.1006C122.461 24.1729 123.161 23.3346 124.072 22.5859C125 21.821 126.107 21.2188 127.393 20.7793C128.695 20.3236 130.143 20.0957 131.738 20.0957C133.659 20.0957 135.352 20.4212 136.816 21.0723C138.298 21.7233 139.453 22.708 140.283 24.0264C141.13 25.3285 141.553 26.9642 141.553 28.9336V41.2383C141.553 42.1172 141.626 43.0531 141.772 44.0459C141.935 45.0387 142.171 45.8932 142.48 46.6094V47H137.769C137.541 46.4792 137.362 45.7874 137.231 44.9248C137.101 44.0459 137.036 43.2321 137.036 42.4834ZM137.817 30.9844L137.866 34.1582H133.301C132.015 34.1582 130.868 34.264 129.858 34.4756C128.849 34.6709 128.003 34.972 127.319 35.3789C126.636 35.7858 126.115 36.2985 125.757 36.917C125.399 37.5192 125.22 38.2272 125.22 39.041C125.22 39.8711 125.407 40.6279 125.781 41.3115C126.156 41.9951 126.717 42.5404 127.466 42.9473C128.231 43.3379 129.167 43.5332 130.273 43.5332C131.657 43.5332 132.878 43.2402 133.936 42.6543C134.993 42.0684 135.832 41.3522 136.45 40.5059C137.085 39.6595 137.427 38.8376 137.476 38.04L139.404 40.2129C139.29 40.8965 138.981 41.6533 138.477 42.4834C137.972 43.3135 137.297 44.111 136.45 44.876C135.62 45.6247 134.627 46.2513 133.472 46.7559C132.332 47.2441 131.047 47.4883 129.614 47.4883C127.824 47.4883 126.253 47.1383 124.902 46.4385C123.568 45.7386 122.526 44.8027 121.777 43.6309C121.045 42.4427 120.679 41.1162 120.679 39.6514C120.679 38.2354 120.955 36.9902 121.509 35.916C122.062 34.8255 122.86 33.9222 123.901 33.2061C124.943 32.4736 126.196 31.9202 127.661 31.5459C129.126 31.1715 130.762 30.9844 132.568 30.9844H137.817Z" fill="white"/>
<path d="M266.931 203.483V189.885C266.931 188.843 266.719 187.94 266.296 187.175C265.889 186.394 265.271 185.791 264.441 185.368C263.611 184.945 262.585 184.733 261.365 184.733C260.225 184.733 259.224 184.929 258.362 185.319C257.515 185.71 256.848 186.223 256.36 186.857C255.888 187.492 255.652 188.176 255.652 188.908H251.135C251.135 187.964 251.379 187.028 251.867 186.101C252.356 185.173 253.056 184.335 253.967 183.586C254.895 182.821 256.002 182.219 257.287 181.779C258.589 181.324 260.038 181.096 261.633 181.096C263.554 181.096 265.246 181.421 266.711 182.072C268.192 182.723 269.348 183.708 270.178 185.026C271.024 186.328 271.448 187.964 271.448 189.934V202.238C271.448 203.117 271.521 204.053 271.667 205.046C271.83 206.039 272.066 206.893 272.375 207.609V208H267.663C267.435 207.479 267.256 206.787 267.126 205.925C266.996 205.046 266.931 204.232 266.931 203.483ZM267.712 191.984L267.761 195.158H263.196C261.91 195.158 260.762 195.264 259.753 195.476C258.744 195.671 257.898 195.972 257.214 196.379C256.531 196.786 256.01 197.299 255.652 197.917C255.294 198.519 255.115 199.227 255.115 200.041C255.115 200.871 255.302 201.628 255.676 202.312C256.05 202.995 256.612 203.54 257.361 203.947C258.126 204.338 259.061 204.533 260.168 204.533C261.552 204.533 262.772 204.24 263.83 203.654C264.888 203.068 265.726 202.352 266.345 201.506C266.98 200.66 267.322 199.838 267.37 199.04L269.299 201.213C269.185 201.896 268.876 202.653 268.371 203.483C267.867 204.313 267.191 205.111 266.345 205.876C265.515 206.625 264.522 207.251 263.366 207.756C262.227 208.244 260.941 208.488 259.509 208.488C257.719 208.488 256.148 208.138 254.797 207.438C253.462 206.739 252.421 205.803 251.672 204.631C250.94 203.443 250.573 202.116 250.573 200.651C250.573 199.235 250.85 197.99 251.404 196.916C251.957 195.826 252.754 194.922 253.796 194.206C254.838 193.474 256.091 192.92 257.556 192.546C259.021 192.172 260.656 191.984 262.463 191.984H267.712ZM283.069 187.224V208H278.552V181.584H282.824L283.069 187.224ZM281.994 193.791L280.115 193.718C280.131 191.911 280.399 190.243 280.92 188.713C281.441 187.167 282.173 185.824 283.117 184.685C284.061 183.545 285.184 182.666 286.487 182.048C287.805 181.413 289.262 181.096 290.857 181.096C292.159 181.096 293.331 181.275 294.372 181.633C295.414 181.975 296.301 182.528 297.033 183.293C297.782 184.058 298.352 185.051 298.742 186.271C299.133 187.476 299.328 188.949 299.328 190.69V208H294.787V190.642C294.787 189.258 294.584 188.151 294.177 187.321C293.77 186.475 293.176 185.865 292.395 185.49C291.614 185.1 290.653 184.904 289.514 184.904C288.391 184.904 287.365 185.14 286.438 185.612C285.526 186.084 284.737 186.735 284.07 187.565C283.419 188.396 282.906 189.348 282.531 190.422C282.173 191.48 281.994 192.603 281.994 193.791ZM322.839 202.873V170.5H327.38V208H323.23L322.839 202.873ZM305.066 195.085V194.572C305.066 192.554 305.31 190.723 305.798 189.079C306.303 187.419 307.011 185.995 307.922 184.807C308.85 183.618 309.948 182.707 311.218 182.072C312.504 181.421 313.936 181.096 315.515 181.096C317.175 181.096 318.624 181.389 319.861 181.975C321.114 182.544 322.172 183.382 323.034 184.489C323.913 185.58 324.605 186.898 325.11 188.444C325.614 189.991 325.964 191.74 326.159 193.693V195.939C325.98 197.876 325.63 199.618 325.11 201.164C324.605 202.71 323.913 204.029 323.034 205.119C322.172 206.21 321.114 207.048 319.861 207.634C318.607 208.203 317.142 208.488 315.466 208.488C313.92 208.488 312.504 208.155 311.218 207.487C309.948 206.82 308.85 205.884 307.922 204.68C307.011 203.475 306.303 202.059 305.798 200.432C305.31 198.788 305.066 197.006 305.066 195.085ZM309.607 194.572V195.085C309.607 196.403 309.737 197.64 309.997 198.796C310.274 199.951 310.697 200.969 311.267 201.848C311.837 202.727 312.561 203.418 313.44 203.923C314.319 204.411 315.368 204.655 316.589 204.655C318.087 204.655 319.315 204.338 320.276 203.703C321.252 203.068 322.033 202.23 322.619 201.188C323.205 200.147 323.661 199.016 323.987 197.795V191.911C323.791 191.016 323.506 190.153 323.132 189.323C322.774 188.477 322.302 187.728 321.716 187.077C321.146 186.41 320.438 185.881 319.592 185.49C318.762 185.1 317.777 184.904 316.638 184.904C315.401 184.904 314.335 185.165 313.44 185.686C312.561 186.19 311.837 186.89 311.267 187.785C310.697 188.664 310.274 189.689 309.997 190.861C309.737 192.017 309.607 193.254 309.607 194.572ZM362.195 200.993C362.195 200.342 362.048 199.74 361.755 199.187C361.478 198.617 360.901 198.104 360.022 197.648C359.159 197.176 357.857 196.77 356.115 196.428C354.651 196.118 353.324 195.752 352.136 195.329C350.964 194.906 349.963 194.393 349.133 193.791C348.319 193.189 347.693 192.481 347.253 191.667C346.814 190.853 346.594 189.901 346.594 188.811C346.594 187.769 346.822 186.784 347.278 185.856C347.75 184.929 348.409 184.107 349.255 183.391C350.118 182.674 351.151 182.113 352.356 181.706C353.56 181.299 354.903 181.096 356.384 181.096C358.5 181.096 360.307 181.47 361.804 182.219C363.301 182.967 364.449 183.968 365.246 185.222C366.044 186.459 366.443 187.834 366.443 189.348H361.926C361.926 188.615 361.706 187.907 361.267 187.224C360.844 186.524 360.217 185.946 359.387 185.49C358.573 185.035 357.572 184.807 356.384 184.807C355.131 184.807 354.114 185.002 353.332 185.393C352.567 185.767 352.006 186.247 351.648 186.833C351.306 187.419 351.135 188.037 351.135 188.688C351.135 189.177 351.216 189.616 351.379 190.007C351.558 190.381 351.867 190.731 352.307 191.057C352.746 191.366 353.365 191.659 354.162 191.936C354.96 192.212 355.977 192.489 357.214 192.766C359.379 193.254 361.161 193.84 362.561 194.523C363.961 195.207 365.002 196.045 365.686 197.038C366.369 198.031 366.711 199.235 366.711 200.651C366.711 201.807 366.467 202.865 365.979 203.825C365.507 204.785 364.815 205.616 363.904 206.315C363.008 206.999 361.934 207.536 360.681 207.927C359.444 208.301 358.052 208.488 356.506 208.488C354.179 208.488 352.209 208.073 350.598 207.243C348.987 206.413 347.766 205.339 346.936 204.021C346.106 202.702 345.691 201.311 345.691 199.846H350.232C350.297 201.083 350.655 202.067 351.306 202.8C351.957 203.516 352.754 204.029 353.698 204.338C354.642 204.631 355.578 204.777 356.506 204.777C357.743 204.777 358.777 204.615 359.607 204.289C360.453 203.964 361.096 203.516 361.535 202.946C361.975 202.377 362.195 201.726 362.195 200.993ZM383.703 181.584V185.051H369.421V181.584H383.703ZM374.255 175.163H378.772V201.457C378.772 202.352 378.91 203.028 379.187 203.483C379.463 203.939 379.822 204.24 380.261 204.387C380.7 204.533 381.172 204.606 381.677 204.606C382.051 204.606 382.442 204.574 382.849 204.509C383.272 204.427 383.589 204.362 383.801 204.313L383.825 208C383.467 208.114 382.995 208.22 382.409 208.317C381.84 208.431 381.148 208.488 380.334 208.488C379.227 208.488 378.21 208.269 377.282 207.829C376.355 207.39 375.614 206.657 375.061 205.632C374.524 204.59 374.255 203.19 374.255 201.433V175.163ZM404.577 203.483V189.885C404.577 188.843 404.366 187.94 403.943 187.175C403.536 186.394 402.917 185.791 402.087 185.368C401.257 184.945 400.232 184.733 399.011 184.733C397.872 184.733 396.871 184.929 396.008 185.319C395.162 185.71 394.494 186.223 394.006 186.857C393.534 187.492 393.298 188.176 393.298 188.908H388.781C388.781 187.964 389.026 187.028 389.514 186.101C390.002 185.173 390.702 184.335 391.614 183.586C392.541 182.821 393.648 182.219 394.934 181.779C396.236 181.324 397.684 181.096 399.28 181.096C401.2 181.096 402.893 181.421 404.358 182.072C405.839 182.723 406.994 183.708 407.824 185.026C408.671 186.328 409.094 187.964 409.094 189.934V202.238C409.094 203.117 409.167 204.053 409.314 205.046C409.476 206.039 409.712 206.893 410.022 207.609V208H405.31C405.082 207.479 404.903 206.787 404.773 205.925C404.642 205.046 404.577 204.232 404.577 203.483ZM405.359 191.984L405.407 195.158H400.842C399.556 195.158 398.409 195.264 397.4 195.476C396.391 195.671 395.544 195.972 394.861 196.379C394.177 196.786 393.656 197.299 393.298 197.917C392.94 198.519 392.761 199.227 392.761 200.041C392.761 200.871 392.948 201.628 393.323 202.312C393.697 202.995 394.258 203.54 395.007 203.947C395.772 204.338 396.708 204.533 397.815 204.533C399.198 204.533 400.419 204.24 401.477 203.654C402.535 203.068 403.373 202.352 403.991 201.506C404.626 200.66 404.968 199.838 405.017 199.04L406.946 201.213C406.832 201.896 406.522 202.653 406.018 203.483C405.513 204.313 404.838 205.111 403.991 205.876C403.161 206.625 402.169 207.251 401.013 207.756C399.874 208.244 398.588 208.488 397.156 208.488C395.365 208.488 393.795 208.138 392.444 207.438C391.109 206.739 390.067 205.803 389.319 204.631C388.586 203.443 388.22 202.116 388.22 200.651C388.22 199.235 388.497 197.99 389.05 196.916C389.603 195.826 390.401 194.922 391.443 194.206C392.484 193.474 393.738 192.92 395.202 192.546C396.667 192.172 398.303 191.984 400.11 191.984H405.359ZM420.715 185.734V208H416.198V181.584H420.593L420.715 185.734ZM428.967 181.438L428.943 185.637C428.568 185.555 428.21 185.507 427.868 185.49C427.543 185.458 427.169 185.441 426.745 185.441C425.704 185.441 424.784 185.604 423.987 185.93C423.189 186.255 422.514 186.711 421.96 187.297C421.407 187.883 420.967 188.583 420.642 189.396C420.333 190.194 420.129 191.073 420.031 192.033L418.762 192.766C418.762 191.171 418.917 189.673 419.226 188.273C419.551 186.874 420.048 185.637 420.715 184.562C421.382 183.472 422.229 182.626 423.254 182.023C424.296 181.405 425.533 181.096 426.965 181.096C427.291 181.096 427.665 181.136 428.088 181.218C428.511 181.283 428.804 181.356 428.967 181.438ZM445.422 181.584V185.051H431.14V181.584H445.422ZM435.974 175.163H440.49V201.457C440.49 202.352 440.629 203.028 440.906 203.483C441.182 203.939 441.54 204.24 441.98 204.387C442.419 204.533 442.891 204.606 443.396 204.606C443.77 204.606 444.161 204.574 444.568 204.509C444.991 204.427 445.308 204.362 445.52 204.313L445.544 208C445.186 208.114 444.714 208.22 444.128 208.317C443.559 208.431 442.867 208.488 442.053 208.488C440.946 208.488 439.929 208.269 439.001 207.829C438.073 207.39 437.333 206.657 436.78 205.632C436.242 204.59 435.974 203.19 435.974 201.433V175.163Z" fill="white"/>
<path d="M492.077 172.453V208H483.532L470.959 185.881V208H462.39V172.453H470.959L483.532 194.572V172.453H492.077ZM527.575 189.519V190.959C527.575 193.677 527.193 196.118 526.428 198.283C525.679 200.432 524.613 202.271 523.23 203.801C521.846 205.314 520.211 206.478 518.323 207.292C516.434 208.09 514.351 208.488 512.073 208.488C509.778 208.488 507.678 208.09 505.774 207.292C503.886 206.478 502.242 205.314 500.842 203.801C499.459 202.271 498.384 200.432 497.619 198.283C496.871 196.118 496.496 193.677 496.496 190.959V189.519C496.496 186.8 496.871 184.359 497.619 182.194C498.384 180.03 499.45 178.19 500.818 176.677C502.201 175.147 503.837 173.983 505.725 173.186C507.629 172.372 509.729 171.965 512.024 171.965C514.302 171.965 516.386 172.372 518.274 173.186C520.178 173.983 521.822 175.147 523.205 176.677C524.589 178.19 525.663 180.03 526.428 182.194C527.193 184.359 527.575 186.8 527.575 189.519ZM518.884 190.959V189.47C518.884 187.712 518.729 186.166 518.42 184.831C518.127 183.48 517.688 182.349 517.102 181.438C516.516 180.526 515.792 179.842 514.929 179.387C514.083 178.915 513.114 178.679 512.024 178.679C510.884 178.679 509.892 178.915 509.045 179.387C508.199 179.842 507.491 180.526 506.921 181.438C506.351 182.349 505.92 183.48 505.627 184.831C505.351 186.166 505.212 187.712 505.212 189.47V190.959C505.212 192.701 505.351 194.247 505.627 195.598C505.92 196.932 506.351 198.063 506.921 198.991C507.507 199.919 508.223 200.619 509.07 201.091C509.932 201.563 510.933 201.799 512.073 201.799C513.163 201.799 514.131 201.563 514.978 201.091C515.824 200.619 516.532 199.919 517.102 198.991C517.688 198.063 518.127 196.932 518.42 195.598C518.729 194.247 518.884 192.701 518.884 190.959ZM540.222 204.777L547.302 172.453H551.526L553.821 175.212L546.277 208H541.614L540.222 204.777ZM538.342 172.453L544.323 205.021L542.785 208H537.39L529.846 172.453H538.342ZM557.702 204.851L563.635 172.453H572.107L564.563 208H559.192L557.702 204.851ZM554.577 172.453L561.828 204.973L560.364 208H555.7L547.986 175.163L550.378 172.453H554.577Z" fill="#005DDF"/>
</svg>
