<svg width="30" height="30" viewBox="0 0 30 30" fill="none" xmlns="http://www.w3.org/2000/svg">
<path d="M14.9859 7.29122C13.464 7.29122 11.9763 7.74252 10.711 8.58802C9.44561 9.43352 8.45935 10.6353 7.87695 12.0413C7.29455 13.4473 7.14218 14.9945 7.43908 16.4871C7.73597 17.9797 8.46882 19.3509 9.54496 20.427C10.6211 21.503 11.9921 22.2358 13.4847 22.5327C14.9775 22.8296 16.5245 22.6773 17.9306 22.0949C19.3366 21.5125 20.5383 20.5263 21.3838 19.261C22.2295 17.9955 22.6806 16.5078 22.6806 14.9859C22.6831 13.9747 22.4858 12.9731 22.1 12.0385C21.7141 11.1037 21.1475 10.2545 20.4325 9.53944C19.7174 8.82442 18.8682 8.25773 17.9336 7.8719C16.9987 7.4861 15.9971 7.28876 14.9859 7.29122ZM14.9859 19.9969C13.9948 19.9969 13.026 19.703 12.2019 19.1523C11.378 18.6019 10.7357 17.8193 10.3564 16.9036C9.97716 15.9879 9.87793 14.9805 10.0713 14.0083C10.2646 13.0363 10.7419 12.1434 11.4426 11.4426C12.1434 10.7419 13.0363 10.2646 14.0083 10.0713C14.9805 9.87794 15.9879 9.97716 16.9036 10.3564C17.8193 10.7357 18.6019 11.378 19.1523 12.2019C19.703 13.026 19.9969 13.9948 19.9969 14.9859C19.9969 16.3148 19.4689 17.5895 18.5292 18.5292C17.5895 19.4689 16.3148 19.9969 14.9859 19.9969ZM24.8014 6.97217C24.8014 7.34337 24.6914 7.70622 24.4851 8.01484C24.2789 8.32347 23.9857 8.56403 23.6428 8.70607C23.3 8.84812 22.9225 8.88528 22.5585 8.81287C22.1944 8.74045 21.8601 8.56171 21.5976 8.29924C21.3352 8.03678 21.1563 7.70238 21.0839 7.33832C21.0114 6.97425 21.0486 6.59691 21.1907 6.25397C21.3327 5.91105 21.5733 5.61793 21.8819 5.41171C22.1906 5.20548 22.5534 5.09541 22.9246 5.09541C23.4223 5.09541 23.8998 5.29314 24.2517 5.64511C24.6037 5.99706 24.8014 6.47443 24.8014 6.97217ZM29.8874 8.84893C29.942 6.51579 29.0718 4.25574 27.4664 2.56178C25.7814 0.935922 23.5203 0.0449672 21.1792 0.0844542C18.7394 -0.0281514 11.2324 -0.0281514 8.79262 0.0844542C6.4602 0.0339506 4.20165 0.903679 2.50548 2.50548C0.900169 4.19944 0.029878 6.45949 0.0844542 8.79262C-0.0281514 11.2324 -0.0281514 18.7394 0.0844542 21.1792C0.029878 23.5124 0.900169 25.7724 2.50548 27.4664C4.20165 29.0682 6.4602 29.9379 8.79262 29.8874C11.2699 30.0375 18.7019 30.0375 21.1792 29.8874C23.5124 29.942 25.7724 29.0718 27.4664 27.4664C29.0718 25.7724 29.942 23.5124 29.8874 21.1792C30 18.7394 30 11.2324 29.8874 8.79262V8.84893ZM26.6969 23.863C26.442 24.5086 26.0575 25.0947 25.5667 25.5855C25.0759 26.0763 24.4898 26.4608 23.8442 26.7157C20.9307 27.3048 17.9523 27.5067 14.9859 27.3162C12.0259 27.5069 9.05351 27.305 6.14639 26.7157C5.50092 26.4608 4.91464 26.0763 4.42394 25.5855C3.93322 25.0947 3.54854 24.5086 3.29371 23.863C2.50548 21.8736 2.67438 17.1817 2.67438 15.0047C2.67438 12.8276 2.50548 8.11699 3.29371 6.14639C3.54135 5.49454 3.92329 4.90204 4.41474 4.40735C4.90619 3.91267 5.49617 3.52685 6.14639 3.27495C9.05351 2.68561 12.0259 2.48367 14.9859 2.67438C17.9523 2.48399 20.9307 2.68593 23.8442 3.27495C24.4898 3.52977 25.0759 3.91445 25.5667 4.40517C26.0575 4.89587 26.442 5.48215 26.6969 6.12762C27.4851 8.11699 27.2975 12.8089 27.2975 14.9859C27.2975 17.163 27.4851 21.8736 26.6969 23.8442V23.863Z" fill="white"/>
</svg>
